<?xml version="1.0" encoding="utf-8"?>
<!-- Generator: Adobe Illustrator 22.1.0, SVG Export Plug-In . SVG Version: 6.00 Build 0)  -->
<svg version="1.1" id="Layer_1" xmlns="http://www.w3.org/2000/svg" xmlns:xlink="http://www.w3.org/1999/xlink" x="0px" y="0px"
	 viewBox="0 0 542 150" style="enable-background:new 0 0 542 150;" xml:space="preserve">
<style type="text/css">
	.st0{fill:#EE3747;}
	.st1{fill:#CC202A;}
	.st2{fill:#0A1E2B;}
</style>
<g id="XMLID_4_">
	<g>
		<polygon id="XMLID_484_" class="st0" points="33,94.3 64.5,80.4 77.8,90.2 45.5,107 		"/>
		<polygon id="XMLID_483_" class="st1" points="45.4,139.6 37,118.7 33,123 33,94.3 45.5,107 		"/>
		<path id="XMLID_482_" class="st2" d="M152.8,17.8c-8.6-8.6-20-13.4-32.2-13.4S97,9.2,88.4,17.8l-2.5,2.5l-2.5-2.5
			C74.8,9.1,63.3,4.4,51.1,4.4C39,4.4,27.5,9.1,18.9,17.7C10.3,26.3,5.6,37.8,5.6,50c0,12.2,4.8,23.6,13.4,32.2l0.3,0.3l50.9-19.2
			l43.2,25.6l-54.6,33L81,144.2c1.3,1.3,3.1,2,4.9,2c1.8,0,3.6-0.7,4.9-2l61.9-62c8.6-8.6,13.3-20.1,13.4-32.2
			C166.2,37.9,161.4,26.4,152.8,17.8z"/>
	</g>
	<g>
		<path class="st2" d="M195.6,127.4v-64h-11.7V48.7h11.7c0-19.2,11.1-28.8,33.4-28.8v16.8c-2.7,0-4.8,0.2-6.5,0.6
			c-1.7,0.4-3,1-3.9,2s-1.6,2.2-2,3.8c-0.4,1.5-0.6,3.4-0.6,5.7h13.4v14.7H216v64H195.6z"/>
		<path class="st2" d="M233.6,127.4V48.7h19.5v9.4c1.7-2.7,3.5-4.7,5.4-6.2c1.9-1.5,3.8-2.6,5.8-3.4c2-0.8,4-1.3,6-1.5
			c2-0.2,4.1-0.3,6.2-0.3h2.7v21.3c-1.9-0.3-3.8-0.5-5.8-0.5c-12.7,0-19,6.3-19,19v41H233.6z"/>
		<path class="st2" d="M330.4,127.4c-0.6-2-1.1-4.4-1.3-7c-2.5,2.8-5.7,5-9.8,6.6c-4.1,1.7-8.7,2.5-14.1,2.5c-9.1,0-15.7-2-19.9-6
			c-4.2-4-6.3-9.2-6.3-15.6c0-5.7,0.9-10.2,2.7-13.5c1.8-3.4,4.3-6,7.5-7.9c3.2-1.9,7-3.3,11.4-4.2c4.4-0.9,9.3-1.7,14.5-2.5
			c5.2-0.7,8.7-1.7,10.6-3c1.8-1.2,2.7-3.2,2.7-6c0-2.6-1.2-4.6-3.6-6c-2.4-1.4-5.6-2.2-9.7-2.2c-4.8,0-8.2,1.1-10.3,3.2
			c-2.1,2.1-3.4,5-3.9,8.5h-19.4c0.1-4.1,0.8-7.8,2-11.2c1.2-3.4,3.2-6.3,5.9-8.8c2.7-2.5,6.3-4.3,10.6-5.7c4.4-1.3,9.7-2,16-2
			c6.2,0,11.4,0.7,15.8,2.1c4.3,1.4,7.8,3.4,10.4,6c2.6,2.6,4.5,5.9,5.7,9.8c1.2,3.9,1.8,8.3,1.8,13.2v49.8H330.4z M329,88.9
			c-1.1,1.1-2.6,1.9-4.6,2.6c-2,0.6-5,1.3-8.8,2.1c-6,1.2-10.1,2.7-12.3,4.5c-2.2,1.8-3.4,4.4-3.4,7.8c0,5.9,3.4,8.8,10.1,8.8
			c2.7,0,5.1-0.5,7.4-1.4c2.3-0.9,4.3-2.1,5.9-3.7c1.7-1.5,3-3.4,4-5.4c1-2.1,1.5-4.3,1.5-6.6L329,88.9z"/>
		<path class="st2" d="M358.1,164.7v-116h20l0.2,9.6c4.8-7.8,12.1-11.7,21.9-11.7c4.9,0,9.5,1,13.7,2.9c4.2,1.9,7.8,4.7,10.8,8.3
			c3,3.6,5.3,8.1,7,13.3c1.7,5.2,2.6,11.1,2.6,17.8c0,6-0.7,11.4-2.2,16.4c-1.4,5-3.5,9.3-6.3,12.9c-2.8,3.6-6.2,6.4-10.2,8.4
			c-4,2-8.6,3-13.7,3c-9.7,0-17.5-4.1-23.4-12.3v47.5H358.1z M395.2,111.8c11.9,0,17.9-8.1,17.9-24.3c0-7-1.7-12.8-5-17.2
			c-3.3-4.4-7.6-6.6-12.8-6.6c-5,0-9.2,2.1-12.6,6.2c-3.4,4.2-5,9.6-5,16.3C377.8,103.2,383.6,111.8,395.2,111.8z"/>
		<path class="st2" d="M441,164.7v-116h20l0.2,9.6c4.8-7.8,12.1-11.7,21.9-11.7c4.9,0,9.5,1,13.7,2.9c4.2,1.9,7.8,4.7,10.8,8.3
			c3,3.6,5.3,8.1,7,13.3c1.7,5.2,2.6,11.1,2.6,17.8c0,6-0.7,11.4-2.2,16.4c-1.4,5-3.5,9.3-6.3,12.9c-2.8,3.6-6.2,6.4-10.2,8.4
			c-4,2-8.6,3-13.7,3c-9.7,0-17.5-4.1-23.4-12.3v47.5H441z M478.1,111.8c11.9,0,17.9-8.1,17.9-24.3c0-7-1.7-12.8-5-17.2
			c-3.3-4.4-7.6-6.6-12.8-6.6c-5,0-9.2,2.1-12.6,6.2c-3.4,4.2-5,9.6-5,16.3C460.7,103.2,466.5,111.8,478.1,111.8z"/>
	</g>
</g>
</svg>
